<?xml version="1.0" encoding="utf-8"?>
<!-- Generator: Adobe Illustrator 27.5.0, SVG Export Plug-In . SVG Version: 6.00 Build 0)  -->
<svg version="1.1" xmlns="http://www.w3.org/2000/svg" xmlns:xlink="http://www.w3.org/1999/xlink" x="0px" y="0px"
	 viewBox="0 0 1500 1500" style="enable-background:new 0 0 1500 1500;" xml:space="preserve">
<style type="text/css">
	.st0{stroke:#FFFFFF;stroke-width:20;stroke-miterlimit:10;}
	.st1{fill:#FFFFFF;stroke:#FFFFFF;stroke-width:10;stroke-miterlimit:10;}
</style>
<g id="Layer_2">
	<polyline class="st0" points="1076.5,1078.5 751,1403.9 443,1095.9 	"/>
</g>
<g id="Layer_1">
	<g>
		<path class="st0" d="M761.2,1201.3c-274,6-461.5-202.8-482.1-424.1c-28.2-302.5,199.1-515.1,448.5-525.1
			c276.6-11.1,475.4,198.6,494.6,432C1245.7,970.3,1023.4,1195.9,761.2,1201.3z M750.1,327.6c-211.3-3.5-394.5,174.3-398.2,391.5
			c-3.7,216.1,169.8,407.3,399.1,406.8c222.9-0.5,392.7-180.7,397-393.4C1152.6,497.3,955.5,327.2,750.1,327.6z"/>
		<path class="st0" d="M1040.7,321.8c-194.6-126.9-387.6-124.3-582.5-0.1c0-6.2-0.5-11,0.1-15.8c4.9-41.6,9.6-83.2,15.1-124.7
			c1.4-10.7,5.2-21.2,8.3-31.6c3-9.7-0.1-14.7-10.4-14.7c-32.8,0-65.7,0.1-98.5,0.1c-12.9,0-18.5,8.7-18.8,19.5
			c-0.8,34.9-1.1,69.8,0,104.7c0.2,6.3,6.8,13,11.6,18.5c10.1,11.6,12.2,28.2,6.5,42.4c-4.3,10.7-5.9,22.4-9.5,33.4
			c-1.7,5.2-4,10.9-7.8,14.3c-6.3,5.6-11.4,3.3-13.4-5.4c-0.9-4-3-7.8-4.6-11.7c-1.8,0.1-3.6,0.2-5.4,0.3
			c-1.1,15.4-2.1,30.8-3.2,46.2c-1.3,0.1-2.5,0.3-3.8,0.4c-1-3.5-2.7-6.9-2.8-10.4c-0.4-9.2-0.2-18.5-0.1-27.8
			c0.1-13,0-25.2-8.3-37.1c-8.7-12.5-3.3-28.3,6-40.4c5.3-6.9,8.4-17.3,8.5-26.2c0.5-34.4-0.7-68.9-1.2-103.4
			c-0.2-15.7-1.3-17.1-17.4-17.4c-24.4-0.4-48.8-0.4-73.2-0.8c-14.9-0.2-24.2-7.9-25.8-20.5c-2-16,4.5-26.8,19.3-30.9
			c5.6-1.5,11.6-2.2,17.4-2.2c142.3-0.1,284.5-0.1,426.8-0.1c5.9,0,11.8,0.4,17.6,1.2c13.8,2.1,25-1,35.1-11.9
			c15.9-17.2,32.5-16.5,48.8,1c8.6,9.2,18.2,12.7,30.5,11c7.5-1,15.1-1.4,22.6-1.4c141-0.1,282-0.1,423,0.1c7.1,0,14.4,0.8,21.1,2.7
			c12.9,3.7,19,15,17.3,29.8c-1.3,11.7-10.3,20.2-22.8,21.3c-5.9,0.5-11.8,0.5-17.7,0.5c-72-0.2-143.9-0.4-215.9-0.6
			c-18.9,0-20,1.9-14.5,19.5c12.2,39.1,18.8,79.1,20.7,120c0.5,11.3,1.7,22.6,2.3,33.9C1042,311.9,1041.2,315.9,1040.7,321.8z"/>
		<path class="st1" d="M750.1,327.6c205.5-0.4,402.5,169.8,397.8,404.8c-4.2,212.8-174.1,392.9-397,393.4
			c-229.3,0.5-402.7-190.7-399.1-406.8C355.6,501.9,538.8,324.1,750.1,327.6z M878.4,691.3c24.7-1.4,41.1-6.7,57.7-23.1
			c28.4-28.1,56-57,83.9-85.6c5.3-5.4,7.8-10.9,1.3-17.4c-6.6-6.7-12.2-5.3-18.3,0.8c-20.8,20.8-41.6,41.6-62.7,62.2
			c-5.9,5.8-12.2,17.3-21.2,8.1c-8.3-8.5,3.1-14.5,8.5-20.1c20.9-21.8,42.1-43.4,63.2-65.2c5-5.1,6.7-10.2,0.5-16.2
			c-6.5-6.3-11.8-4.8-17.4,0.6c-3.9,3.8-7.7,7.7-11.6,11.6c-18.9,19.2-37.7,38.4-56.6,57.6c-5.2,5.2-12,8.9-17.1,1.9
			c-1.9-2.6,0.7-11.2,3.9-14.5c18.5-19.5,37.7-38.3,56.8-57.3c4.2-4.1,9.4-7.4,12.8-12c4.6-6.2,5.5-13.2-1.4-19.1
			c-6.6-5.6-11.4-2.2-16.3,2.7c-14.6,14.6-29.2,29.1-43.9,43.5c-9.6,9.4-19,19.1-29.3,27.7c-2.6,2.1-8.3,0.5-12.5,0.6
			c1.1-4,1-9.2,3.5-11.9c8.8-9.6,18.6-18.2,27.8-27.4c13.6-13.7,27.2-27.5,40.5-41.4c6.8-7.1,8-14.8,0.4-22.1
			c-7.6-7.4-12.8-1.3-18,3.8c-11.3,11.3-22.8,22.4-34,33.8c-16.6,16.7-33.2,33.5-49.5,50.4c-12.6,13-21.9,28.4-22.3,46.7
			c-0.2,11.5,4.3,23,6.2,34.6c0.8,4.7,2.5,11.8,0.1,14c-8.4,8-17.4,16.7-27.8,20.9c-17.7,7-36.2,17.9-55.1,0
			c-8.6-8.1-20.8-12.4-29.8-20.1c-3.4-2.9-4.8-11.9-3-16.4c12-29.4,6.3-55.6-14.2-78.3c-27-30.1-60.1-51.4-99.7-60.8
			c-19.7-4.7-38.3,0.4-52.2,15c-13.2,13.9-18.8,31.2-13.7,51.1c10,39.6,31.4,72,61.1,99.5c23,21.3,49.1,25.4,78.4,16.3
			c4.6-1.4,12.6-1.8,14.9,0.9c8,9.2,14.3,20,21,30.3c2.9,4.5,4.6,10.1,8.1,13.9c8,8.7,7.2,15.7-1,23.8
			C645.3,808.8,590.3,863.3,535.5,918c-5.9,5.8-10.9,12.8-15.2,19.9c-7.3,12.2-4.1,23.3,8.8,35.4c11.1,10.4,22.8,12.1,34.2,3.7
			c9.4-7,18.5-14.7,26.8-22.9c55.7-55.5,111.5-110.9,166.7-167c25.7-26.1,55.2-49.4,69.3-85.2c1.9-4.9,5.7-9.9,10.1-12.7
			c4.3-2.8,10.5-4.3,15.6-3.7C860.8,686.4,869.6,689.3,878.4,691.3z M813.1,753.6c-13.6,12.9-25.9,24.8-38.5,36.4
			c-6.8,6.3-6.3,10.8,0.4,17.4c32.5,32.2,64.3,65.2,96.6,97.6c23.4,23.5,46.9,46.9,71.1,69.7c11.7,11,22.2,10,35.4,1.8
			c21.2-13.1,19.5-37.8,4.7-52.7C926.9,867.4,870.7,811.3,813.1,753.6z"/>
		<path d="M878.4,691.3c-8.8-2.1-17.6-4.9-26.6-5.9c-5.1-0.5-11.3,1-15.6,3.7c-4.3,2.8-8.1,7.8-10.1,12.7
			c-14.1,35.8-43.6,59.1-69.3,85.2c-55.1,56.1-110.9,111.5-166.7,167c-8.3,8.3-17.4,15.9-26.8,22.9c-11.3,8.4-23,6.7-34.2-3.7
			c-13-12.1-16.1-23.2-8.8-35.4c4.3-7.1,9.3-14.1,15.2-19.9c54.8-54.7,109.7-109.1,164.9-163.4c8.2-8.1,9-15.1,1-23.8
			c-3.5-3.9-5.2-9.4-8.1-13.9c-6.7-10.3-13-21.1-21-30.3c-2.3-2.7-10.3-2.3-14.9-0.9c-29.3,9.1-55.4,5-78.4-16.3
			c-29.7-27.5-51.1-59.8-61.1-99.5c-5-20,0.5-37.2,13.7-51.1c13.8-14.6,32.5-19.6,52.2-15c39.7,9.4,72.7,30.7,99.7,60.8
			c20.5,22.8,26.2,48.9,14.2,78.3c-1.8,4.5-0.4,13.5,3,16.4c9,7.8,21.2,12,29.8,20.1c18.9,17.9,37.4,7,55.1,0
			c10.5-4.1,19.5-12.9,27.8-20.9c2.3-2.2,0.7-9.3-0.1-14c-1.9-11.6-6.4-23.1-6.2-34.6c0.4-18.3,9.7-33.6,22.3-46.7
			c16.4-16.9,33-33.7,49.5-50.4c11.3-11.4,22.7-22.5,34-33.8c5.2-5.1,10.4-11.2,18-3.8c7.5,7.3,6.4,15.1-0.4,22.1
			c-13.4,13.9-26.9,27.7-40.5,41.4c-9.2,9.2-19,17.9-27.8,27.4c-2.5,2.7-2.4,7.9-3.5,11.9c4.3-0.1,10,1.6,12.5-0.6
			c10.3-8.6,19.7-18.2,29.3-27.7c14.7-14.4,29.3-29,43.9-43.5c4.9-4.8,9.7-8.3,16.3-2.7c7,5.9,6,12.9,1.4,19.1
			c-3.4,4.6-8.7,7.8-12.8,12c-19.1,19-38.3,37.8-56.8,57.3c-3.2,3.4-5.9,11.9-3.9,14.5c5.2,7,12,3.4,17.1-1.9
			c18.9-19.1,37.8-38.4,56.6-57.6c3.8-3.9,7.6-7.8,11.6-11.6c5.6-5.4,10.9-6.9,17.4-0.6c6.2,6.1,4.5,11.1-0.5,16.2
			c-21,21.7-42.3,43.3-63.2,65.2c-5.4,5.6-16.8,11.5-8.5,20.1c9,9.2,15.3-2.4,21.2-8.1c21-20.6,41.9-41.3,62.7-62.2
			c6.1-6.1,11.7-7.6,18.3-0.8c6.5,6.6,3.9,12-1.3,17.4c-27.9,28.6-55.5,57.5-83.9,85.6C919.5,684.7,903.2,689.9,878.4,691.3z
			 M584.5,519.8c-4.9,3.6-8.1,5.9-11.2,8.3c3,3.5,5.3,8.1,9.1,10.3c18.8,10.8,38.3,20.4,56.8,31.6c7.4,4.4,12.5,12.5,19.6,17.5
			c2.7,1.9,8.2,0.1,12.4,0c-0.7-4,0-9.5-2.4-11.7c-12.1-11-24.3-22.3-37.9-31.2C616.4,535.1,600.3,528.1,584.5,519.8z"/>
		<path d="M813.1,753.6c57.7,57.8,113.8,113.8,169.7,170.2c14.8,14.9,16.5,39.5-4.7,52.7c-13.2,8.2-23.8,9.2-35.4-1.8
			c-24.1-22.7-47.7-46.2-71.1-69.7c-32.3-32.4-64.1-65.4-96.6-97.6c-6.7-6.6-7.2-11.2-0.4-17.4C787.2,778.3,799.5,766.4,813.1,753.6
			z"/>
		<path class="st1" d="M584.5,519.8c15.7,8.3,31.9,15.3,46.4,24.8c13.6,8.9,25.8,20.2,37.9,31.2c2.4,2.2,1.7,7.7,2.4,11.7
			c-4.2,0.1-9.6,2-12.4,0c-7.1-5-12.3-13.1-19.6-17.5c-18.6-11.2-38-20.8-56.8-31.6c-3.8-2.2-6.1-6.8-9.1-10.3
			C576.5,525.8,579.6,523.4,584.5,519.8z"/>
	</g>
</g>
</svg>
